<svg width="521" height="184" fill="none" xmlns="http://www.w3.org/2000/svg"><path d="M519.79 172.249c-14.13-41.87-3.29-86.35-7.09-129.35-1.65-18.76-9.39-41-31.7-41.88-9.19-.35-17.41 4.88-21.73 12.88s-4.63 17.25-4.95 26c-.88 23.6-1.397 47.18-1.55 70.74-.07 10.82.43 21.74-.15 32.54-.27 5.09-.82 13.47-5.51 16.63-6.55 4.39-12.19-5.58-13.44-10.62-2.52-10.21-1.13-21.81-1.1-32.23.05-22.91.38-45.83.14-68.74-.19-17.12-4.47-39.6-24.29-44C386.17-.81 378 24.01 374.89 40.9c-4 21.62-3.81 43.61-5 65.48a213.29 213.29 0 01-3.66 32c-.88 4.21-1.72 8.66-3.5 12.59-1.05 2.31-3.55 7.6-6.54 8.09-9.14 1.51-6.83-42-6.8-47 .18-23.18 1.32-46.44-.86-69.57C347.09 26.83 342.86 1.9 322 2.7c-9.82.39-17.84 7.65-21.36 16.45-3.94 9.86-3 21.12-3.13 31.53-.24 23.42-.483 46.844-.73 70.27-.1 9.65.83 20.18-2.05 29.52-1.84 6-7.47 13.37-13 6.15-2.74-3.59-3.39-8.72-3.93-13.07-.77-6.05-1.24-12.15-1.77-18.22a912.391 912.391 0 01-3.35-70c-.09-9.87.44-19.82-1.27-29.59-1.52-8.66-6-17.42-13.76-22-9-5.36-18.78-.37-23.15 8.32-4.71 9.36-6.93 20.58-9.25 30.73a305.684 305.684 0 00-5.64 33.35 281.622 281.622 0 00-1.88 33.48c0 9.1.57 18.2 0 27.29-.49 7.42-1.82 15.61-6.33 21.76a21.602 21.602 0 01-3.73 4c-.576.402-1.177.766-1.8 1.09-1.31-1.61-1.55-5.35-1.68-7-1.88-22.63 1.15-46 1.76-68.62.31-11.53.32-23.08-.45-34.6-.71-10.57-1.35-22.07-5.23-32-3.62-9.32-10.19-17.26-20-20.41a23.679 23.679 0 00-24.8 6.68c-13 14.45-9.8 39.24-8.17 56.87 2.09 22.6 6.36 45.09 5.88 67.86-.18 8.08-.5 19.36-8.18 24.36-7.1 4.57-12-2.15-13.05-8.86-1.63-10.52.73-22.13 1.08-32.72a484.74 484.74 0 00-.09-34.82 476.34 476.34 0 00-2.61-34.72c-1.07-9.59-1.56-19.85-5.95-28.63-4-8.09-12.21-13.72-21.49-12-10 1.83-16.33 10.62-20.11 19.36-8.49 19.63-6.22 43-6.44 63.86l-.37 35.2c-.11 9.54.84 19.76-.89 29.18-.82 4.47-3 12.07-8.82 8.16-7.67-5.17-5.77-18.81-5.88-26.71A1768.93 1768.93 0 0058 64.339c-.58-10.78-.75-21.76-2.37-32.44-1.2-7.86-3.87-16.13-9.84-21.69a22.06 22.06 0 00-25.61-3C11 12.05 6.25 21.79 4.54 31.61.52 54.62 0 78.79 0 102.1a572.478 572.478 0 004.16 67.88c.58 4.79 3.69 8.94 8.94 8.94 4.38 0 9.51-4.11 8.93-8.94a569.999 569.999 0 01-4.16-69A555.326 555.326 0 0119 65.899c.68-10.65.87-22 3.32-32.4 1-4.41 6.62-16.22 12.17-9.29 4.42 5.52 4.1 15 4.53 21.6 1.447 22.52 2.447 45.06 3 67.62.29 11.34-.12 22.81.7 34.12.74 10.12 3.51 20.11 11.69 26.72 7.16 5.79 17 7.57 25.28 2.91 6.91-3.9 10.79-11.47 12.4-19 2-9.52 1.49-19.46 1.6-29.12.12-11.74.243-23.476.37-35.21.12-11.07.16-22.15.37-33.22.19-9.46.59-19.28 4.17-28.18 1.17-2.91 3.31-8.15 6.54-9.45 1.77-.72 2.7.82 3.72 3.16 3.69 8.43 3.56 19.27 4.4 28.27a480.364 480.364 0 011.5 68.49c-.9 18.17-4.33 43.91 17.19 52 9.2 3.46 19.23.35 26.42-5.92 7.47-6.51 10.65-16.21 11.85-25.75 2.76-21.84-1.21-44.26-3.76-65.93A300.95 300.95 0 01164 43.37c0-7.09-.54-16.7 3.94-22.8 4.48-6.1 11.68-.76 14.37 4.38 4.69 8.95 4.81 20.85 5.4 30.69 1.34 22.74-.25 45.52-1.11 68.25-.42 11.08-1.13 22.43-.28 33.51.61 8 3.07 17 10.19 21.65 17.64 11.45 33.42-12.64 36.91-27.13 4.38-18.23 1.6-37.43 2.44-56a275.549 275.549 0 0110.82-64.69c.78-2.69 1.59-5.36 2.47-8 0-.06.61-1.31 1.1-2.42a21.698 21.698 0 012.51 4c3 7.72 2 17 2 25a910.1 910.1 0 002.92 70c1.45 18-.08 45.51 18.84 55.2 9 4.61 19.3 2.63 26.45-4.36 7.15-6.99 9.89-16.78 10.94-26.41 1.12-10.25.67-20.74.78-31l.37-35.14c.12-11.333.237-22.666.35-34 .06-6-1.68-20.62 6-23.28 10.67-3.71 10.41 39.65 10.51 44.37.46 22.86-.92 45.72-.12 68.57.55 15.73 1.55 42.44 23.15 43.12 20.32.63 27-24.12 29.67-39.79 3.59-21.34 3.4-43 4.62-64.51a204.723 204.723 0 013.69-30.94c1.1-5.2 2.78-18.09 9.19-20 7.14-2.15 10.77 9.06 11.75 13.9 1.78 8.75 1 18.15 1 27-.047 22.86-.097 45.717-.15 68.57 0 18.35 2.83 43 25.09 47 19.57 3.55 28.78-15 30.45-31.34 1-10.12.35-20.48.4-30.64.053-11.413.19-22.826.41-34.24.22-11.766.53-23.543.93-35.33.25-7.41-.81-17.5 3.07-24.27 3.55-6.17 11-2.86 14.48 1.78 5.41 7.3 5.45 18.25 5.88 26.9 1 21.24-.74 42.48-.93 63.72-.19 21 1.35 42.26 8.11 62.28 3.61 10.87 20.87 6.22 17.18-4.72z" fill="#E9EDF2"/></svg>